<?xml version="1.0" encoding="utf-8"?>
<!-- Designed by Vexels.com - 2020 All Rights Reserved - https://vexels.com/terms-and-conditions/  -->
<svg version="1.1" id="Capa_1" xmlns="http://www.w3.org/2000/svg" xmlns:xlink="http://www.w3.org/1999/xlink" x="0px" y="0px"
	 viewBox="0 0 1200 1200" enable-background="new 0 0 1200 1200" xml:space="preserve">
<path fill="#1877F2" d="M1131.025,536.063L640.47,93.366c-21.694-19.666-54.6-19.771-76.571-0.279L69.22,534.631
	c-18.092,16.138-24.034,41.15-15.159,63.717c8.872,22.531,30.497,36.225,54.528,36.294l84.851-1.782v431.31
	c0,31.579,25.712,57.289,57.29,57.289h206.589c31.579,0,57.29-25.71,57.29-57.289V792.677h184.198v271.493
	c0,31.579,25.674,57.289,57.253,57.289h185.317c31.579,0,57.287-25.71,57.287-57.289V635.866h93.969
	c23.892,0,44.889-14.428,53.48-36.75C1154.709,576.829,1148.77,552.062,1131.025,536.063z"/>
</svg>
